<svg width="32" height="32" viewBox="0 0 32 32" fill="none" xmlns="http://www.w3.org/2000/svg">
<path fill-rule="evenodd" clip-rule="evenodd" d="M10.6667 1.33334C11.4031 1.33334 12 1.9303 12 2.66668V4.00305C12.3963 4 12.824 4.00001 13.286 4.00001H18.714C19.176 4.00001 19.6037 4 20 4.00305V2.66668C20 1.9303 20.5969 1.33334 21.3333 1.33334C22.0697 1.33334 22.6667 1.9303 22.6667 2.66668V4.16613C23.0923 4.2387 23.4947 4.34597 23.8845 4.50748C25.5181 5.1841 26.8159 6.48193 27.4925 8.11545C27.774 8.79505 27.8908 9.51276 27.9461 10.3244C28 11.1138 28 12.0836 28 13.286V18.138C28 19.6075 28 20.7925 27.9204 21.7517C27.8384 22.7396 27.6649 23.6065 27.2495 24.4065C26.6169 25.6241 25.6241 26.6169 24.4065 27.2495C23.6065 27.6649 22.7396 27.8384 21.7517 27.9204C20.7925 28 19.6075 28 18.138 28H13.862C12.3926 28 11.2074 28 10.2482 27.9204C9.26047 27.8384 8.39351 27.6649 7.59351 27.2495C6.37588 26.6169 5.38308 25.6241 4.75057 24.4065C4.33501 23.6065 4.16167 22.7396 4.07963 21.7517C3.99997 20.7925 3.99999 19.6075 4 18.138V13.286C3.99999 12.0836 3.99999 11.1138 4.05384 10.3244C4.10921 9.51276 4.22597 8.79505 4.50747 8.11545C5.18409 6.48193 6.48192 5.1841 8.11544 4.50748C8.50535 4.34597 8.9078 4.2387 9.33333 4.16613V2.66668C9.33333 1.9303 9.93029 1.33334 10.6667 1.33334ZM9.33333 6.89969C9.26257 6.9219 9.19731 6.94573 9.13593 6.97116C8.15583 7.37713 7.37712 8.15584 6.97115 9.13594C6.84667 9.43645 6.76044 9.83006 6.71432 10.5059C6.68603 10.9206 6.67453 11.4047 6.66985 12H25.3301C25.3255 11.4047 25.314 10.9206 25.2857 10.5059C25.2396 9.83006 25.1533 9.43645 25.0288 9.13594C24.6229 8.15584 23.8441 7.37713 22.8641 6.97116C22.8027 6.94573 22.7375 6.9219 22.6667 6.89969V8.00001C22.6667 8.73638 22.0697 9.33334 21.3333 9.33334C20.5969 9.33334 20 8.73638 20 8.00001V6.66986C19.6079 6.6668 19.1673 6.66668 18.6667 6.66668H13.3333C12.8326 6.66668 12.3922 6.6668 12 6.66986V8.00001C12 8.73638 11.4031 9.33334 10.6667 9.33334C9.93029 9.33334 9.33333 8.73638 9.33333 8.00001V6.89969ZM25.3333 14.6667H6.66667V18.08C6.66667 19.6211 6.66773 20.6952 6.73715 21.5311C6.80524 22.3509 6.93212 22.8213 7.11701 23.1772C7.49652 23.9079 8.0922 24.5035 8.82277 24.8829C9.17871 25.0679 9.64904 25.1948 10.4689 25.2628C11.3047 25.3323 12.379 25.3333 13.92 25.3333H18.08C19.6211 25.3333 20.6952 25.3323 21.5311 25.2628C22.3509 25.1948 22.8213 25.0679 23.1772 24.8829C23.9079 24.5035 24.5035 23.9079 24.8829 23.1772C25.0679 22.8213 25.1948 22.3509 25.2628 21.5311C25.3323 20.6952 25.3333 19.6211 25.3333 18.08V14.6667ZM17.3333 21.3333C17.3333 20.5969 17.9303 20 18.6667 20H21.3333C22.0697 20 22.6667 20.5969 22.6667 21.3333C22.6667 22.0697 22.0697 22.6667 21.3333 22.6667H18.6667C17.9303 22.6667 17.3333 22.0697 17.3333 21.3333Z" fill="#2B2D42"/>
</svg>
