<svg width="32" height="32" viewBox="0 0 32 32" fill="none" xmlns="http://www.w3.org/2000/svg">
<path d="M6.66669 21.3333C6.66669 20.5969 7.26365 20 8.00002 20H10.6667C11.4031 20 12 20.5969 12 21.3333C12 22.0697 11.4031 22.6667 10.6667 22.6667H8.00002C7.26365 22.6667 6.66669 22.0697 6.66669 21.3333Z" fill="#2B2D42"/>
<path d="M14.6666 20C13.9302 20 13.3333 20.5969 13.3333 21.3333C13.3333 22.0697 13.9302 22.6667 14.6666 22.6667H16C16.7364 22.6667 17.3333 22.0697 17.3333 21.3333C17.3333 20.5969 16.7364 20 16 20H14.6666Z" fill="#2B2D42"/>
<path fill-rule="evenodd" clip-rule="evenodd" d="M9.05065 4C7.95929 3.99999 7.05855 3.99997 6.32522 4.06087C5.56342 4.12413 4.86363 4.25995 4.20811 4.60047C3.23402 5.10647 2.43978 5.90071 1.93378 6.8748C1.59326 7.53032 1.45745 8.23011 1.39418 8.99191C1.33328 9.72524 1.3333 10.6259 1.33331 11.7173V20.2827C1.3333 21.374 1.33328 22.2748 1.39418 23.0081C1.45745 23.7699 1.59326 24.4697 1.93378 25.1252C2.43978 26.0993 3.23402 26.8936 4.20811 27.3996C4.86363 27.74 5.56342 27.8759 6.32522 27.9392C7.05857 28 7.9593 28 9.05069 28H22.9493C24.0406 28 24.9414 28 25.6748 27.9392C26.4365 27.8759 27.1364 27.74 27.7918 27.3996C28.766 26.8936 29.5602 26.0993 30.0662 25.1252C30.4066 24.4697 30.5425 23.7699 30.6058 23.0081C30.6666 22.2748 30.6666 21.374 30.6666 20.2827V11.7174C30.6666 10.626 30.6666 9.72525 30.6058 8.99191C30.5425 8.23011 30.4066 7.53032 30.0662 6.8748C29.5602 5.90071 28.766 5.10647 27.7918 4.60047C27.1364 4.25995 26.4365 4.12413 25.6748 4.06087C24.9414 3.99997 24.0406 3.99999 22.9493 4H9.05065ZM5.43738 6.96689C5.64882 6.85707 5.95201 6.76771 6.54591 6.71839C7.15579 6.66775 7.94529 6.66667 9.10665 6.66667H22.8933C24.0546 6.66667 24.8441 6.66775 25.4541 6.71839C26.048 6.76771 26.3512 6.85707 26.5626 6.96689C27.0496 7.21991 27.4468 7.61703 27.6997 8.10407C27.8096 8.31551 27.8989 8.61869 27.9482 9.2126C27.9809 9.60557 27.9929 10.0731 27.9974 10.6667H4.00257C4.00702 10.0731 4.01906 9.60557 4.0517 9.2126C4.10102 8.61869 4.19038 8.31551 4.30021 8.10407C4.55322 7.61703 4.95034 7.21991 5.43738 6.96689ZM3.99998 13.3333V20.2267C3.99998 21.388 4.00106 22.1775 4.0517 22.7875C4.10102 23.3813 4.19038 23.6845 4.30021 23.896C4.55322 24.3829 4.95034 24.7801 5.43738 25.0331C5.64882 25.1429 5.95201 25.2323 6.54591 25.2816C7.15579 25.3323 7.94529 25.3333 9.10665 25.3333H22.8933C24.0546 25.3333 24.8441 25.3323 25.4541 25.2816C26.048 25.2323 26.3512 25.1429 26.5626 25.0331C27.0496 24.7801 27.4468 24.3829 27.6997 23.896C27.8096 23.6845 27.8989 23.3813 27.9482 22.7875C27.9989 22.1775 28 21.388 28 20.2267V13.3333H3.99998Z" fill="#2B2D42"/>
</svg>
