<svg width="32" height="32" viewBox="0 0 32 32" fill="none" xmlns="http://www.w3.org/2000/svg">
<path fill-rule="evenodd" clip-rule="evenodd" d="M5.66939 13.3333C5.45003 14.1856 5.33335 15.0792 5.33335 16C5.33335 16.9208 5.45003 17.8144 5.66941 18.6667H10.8069C10.717 17.8303 10.6667 16.9416 10.6667 16C10.6667 15.0584 10.717 14.1697 10.8069 13.3333H5.66939ZM6.76037 10.6667H11.2553C11.662 8.91612 12.232 7.47338 12.8102 6.33006C12.9178 6.11722 13.0257 5.91492 13.1327 5.72312C10.4187 6.47874 8.14066 8.28054 6.76037 10.6667ZM16 6.13974C15.7502 6.5138 15.471 6.9778 15.1899 7.53356C14.7691 8.3656 14.342 9.40732 14.0039 10.6667H17.9962C17.658 9.40732 17.231 8.3656 16.8102 7.53356C16.5291 6.9778 16.2499 6.5138 16 6.13974ZM18.5091 13.3333H13.491C13.3908 14.1579 13.3334 15.0464 13.3334 16C13.3334 16.9536 13.3908 17.8421 13.491 18.6667H18.5091C18.6092 17.8421 18.6667 16.9536 18.6667 16C18.6667 15.0464 18.6092 14.1579 18.5091 13.3333ZM21.1931 18.6667C21.2831 17.8303 21.3334 16.9416 21.3334 16C21.3334 15.0584 21.2831 14.1697 21.1931 13.3333H26.3307C26.55 14.1856 26.6667 15.0792 26.6667 16C26.6667 16.9208 26.55 17.8144 26.3307 18.6667H21.1931ZM17.9962 21.3333H14.0039C14.342 22.5927 14.7691 23.6344 15.1899 24.4664C15.471 25.0221 15.7502 25.4861 16 25.8603C16.2499 25.4861 16.5291 25.0221 16.8102 24.4664C17.231 23.6344 17.658 22.5927 17.9962 21.3333ZM13.1327 26.2769C13.0257 26.0851 12.9178 25.8828 12.8102 25.6699C12.232 24.5267 11.662 23.0839 11.2553 21.3333H6.76037C8.14066 23.7195 10.4187 25.5212 13.1327 26.2769ZM18.8674 26.2768C18.9744 26.0851 19.0822 25.8828 19.1899 25.6699C19.768 24.5267 20.338 23.0839 20.7447 21.3333H25.2396C23.8594 23.7195 21.5814 25.5212 18.8674 26.2768ZM25.2396 10.6667H20.7447C20.338 8.91612 19.768 7.47338 19.1899 6.33006C19.0822 6.11722 18.9744 5.91492 18.8674 5.72312C21.5814 6.47874 23.8594 8.28054 25.2396 10.6667ZM2.66669 16C2.66669 8.63619 8.63622 2.66666 16 2.66666C23.3638 2.66666 29.3334 8.63619 29.3334 16C29.3334 23.3637 23.3638 29.3333 16 29.3333C8.63622 29.3333 2.66669 23.3637 2.66669 16Z" fill="#2B2D42"/>
</svg>
