<svg width="28" height="29" viewBox="0 0 28 29" fill="none" xmlns="http://www.w3.org/2000/svg">
<path fill-rule="evenodd" clip-rule="evenodd" d="M14.3728 2.95437C14.1293 2.88347 13.8707 2.88347 13.6271 2.95437C13.5571 2.97479 13.4339 3.02585 13.1719 3.22421C12.8964 3.43283 12.5591 3.73139 12.0335 4.1986L5.04725 10.4085C4.19078 11.1698 3.94798 11.3995 3.77918 11.6533C3.61681 11.8976 3.49585 12.1669 3.42117 12.4505C3.34353 12.7455 3.33326 13.0793 3.33326 14.2253V20.8933C3.33326 22.0547 3.33434 22.8441 3.38498 23.454C3.4343 24.048 3.52366 24.3512 3.6335 24.5625C3.8865 25.0496 4.28362 25.4468 4.77067 25.6997C4.9821 25.8096 5.28529 25.8989 5.87921 25.9483C6.48907 25.9989 7.27857 26 8.43993 26H8.66659V22C8.66659 19.0545 11.0544 16.6667 14 16.6667C16.9455 16.6667 19.3333 19.0545 19.3333 22V26H19.56C20.7213 26 21.5108 25.9989 22.1207 25.9483C22.7145 25.8989 23.0177 25.8096 23.2292 25.6997C23.7163 25.4468 24.1133 25.0496 24.3664 24.5625C24.4763 24.3512 24.5656 24.048 24.6149 23.454C24.6655 22.8441 24.6667 22.0547 24.6667 20.8933V14.2253C24.6667 13.0793 24.6564 12.7455 24.5787 12.4505C24.504 12.1669 24.3831 11.8976 24.2207 11.6533C24.0519 11.3995 23.8091 11.1698 22.9527 10.4085L15.9664 4.1986C15.4408 3.73139 15.1035 3.43283 14.828 3.22421C14.566 3.02585 14.4428 2.97479 14.3728 2.95437ZM12.8815 0.394068C13.612 0.181348 14.3879 0.181348 15.1184 0.394068C15.6252 0.541681 16.0455 0.801254 16.4376 1.09816C16.8069 1.37779 17.2229 1.74751 17.7019 2.17325L24.7243 8.41544C24.7621 8.44904 24.7993 8.48219 24.8363 8.51491C25.5319 9.13253 26.0572 9.59912 26.4415 10.177C26.7661 10.6655 27.0081 11.2043 27.1575 11.7716C27.3341 12.4427 27.3339 13.1453 27.3333 14.0755C27.3333 14.1248 27.3333 14.1747 27.3333 14.2253V20.9493C27.3333 22.0407 27.3333 22.9415 27.2724 23.6748C27.2092 24.4365 27.0733 25.1364 26.7328 25.7919C26.2268 26.766 25.4325 27.5601 24.4585 28.0661C23.8029 28.4067 23.1032 28.5425 22.3413 28.6057C21.608 28.6667 20.7073 28.6667 19.6159 28.6667H19.0733C19.0629 28.6667 19.0525 28.6667 19.0419 28.6667C18.8804 28.6667 18.6876 28.6668 18.5177 28.6527C18.3208 28.6364 18.0389 28.5944 17.7447 28.4415C17.3793 28.2517 17.0815 27.9539 16.8917 27.5887C16.7389 27.2943 16.6969 27.0124 16.6805 26.8155C16.6664 26.6457 16.6665 26.4528 16.6665 26.2913L16.6667 22C16.6667 20.5272 15.4727 19.3333 14 19.3333C12.5272 19.3333 11.3333 20.5272 11.3333 22L11.3333 26.2913C11.3333 26.4528 11.3335 26.6457 11.3193 26.8155C11.303 27.0124 11.261 27.2943 11.1081 27.5887C10.9183 27.9539 10.6205 28.2517 10.2552 28.4415C9.96093 28.5944 9.67905 28.6364 9.48213 28.6527C9.3123 28.6668 9.11945 28.6667 8.95795 28.6667C8.94737 28.6667 8.9369 28.6667 8.92659 28.6667H8.38397C7.29258 28.6667 6.39185 28.6667 5.6585 28.6057C4.8967 28.5425 4.19691 28.4067 3.54139 28.0661C2.5673 27.5601 1.77306 26.766 1.26706 25.7919C0.926555 25.1364 0.790728 24.4365 0.727461 23.6748C0.666568 22.9415 0.666582 22.0407 0.666595 20.9493V14.2253C0.666595 14.1747 0.666568 14.1248 0.666555 14.0755C0.666062 13.1453 0.665701 12.4427 0.842395 11.7716C0.991768 11.2043 1.2337 10.6655 1.55845 10.177C1.94261 9.59912 2.46806 9.13253 3.16362 8.51492C3.20047 8.48219 3.23779 8.44904 3.27561 8.41544L10.298 2.17327C10.777 1.74751 11.1929 1.37779 11.5623 1.09816C11.9544 0.801254 12.3747 0.541681 12.8815 0.394068Z" fill="#2B2D42"/>
</svg>
