<svg viewBox="0 0 188 183" fill="none" xmlns="http://www.w3.org/2000/svg">
    <g clip-path="url(#clip0_3_23)">
        <path
            d="M-65.1361 187.13C-72.9849 166.093 -73.2587 141.428 -61.8048 126.278C-50.2253 110.934 -26.7927 104.91 -6.70276 98.0998C13.3872 91.2891 30.1346 83.6912 44.5318 86.9539C59.0546 90.0228 71.0332 103.827 81.8711 118.544C93.0283 133.192 102.657 148.502 106.25 167.611C109.776 186.4 107.197 208.669 95.3897 226.067C83.3882 243.339 62.2829 255.545 40.4588 257.382C18.7033 259.538 -3.77103 251.324 -22.7202 238.513C-41.6693 225.701 -57.2872 208.167 -65.1361 187.13Z"
            fill="url(#paint0_linear_3_23)" />
    </g>
    <defs>
        <linearGradient id="paint0_linear_3_23" x1="145.048" y1="149.35" x2="-93.9615" y2="215.13"
            gradientUnits="userSpaceOnUse">
            <stop stop-color="#EDF2F4" />
            <stop offset="1" stop-color="#2B2D42" />
        </linearGradient>
        <clipPath id="clip0_3_23">
            <rect width="231" height="231" fill="white"
                transform="translate(61.9405 319.432) rotate(-147.095)" />
        </clipPath>
    </defs>
</svg>
